<?xml version="1.0" encoding="utf-8"?>
<!-- Generator: Adobe Illustrator 16.0.0, SVG Export Plug-In . SVG Version: 6.00 Build 0)  -->
<!DOCTYPE svg PUBLIC "-//W3C//DTD SVG 1.1//EN" "http://www.w3.org/Graphics/SVG/1.1/DTD/svg11.dtd">
<svg version="1.1" id="레이어_2" xmlns="http://www.w3.org/2000/svg" xmlns:xlink="http://www.w3.org/1999/xlink" x="0px"
	 y="0px" width="213.333px" height="242.938px" viewBox="0 0 213.333 242.938" enable-background="new 0 0 213.333 242.938"
	 xml:space="preserve">
<path fill="#E8C82F" d="M-0.002,0.004l19,217.98l87.67,24.95l87.67-24.95l19-217.98H-0.002z M98.938,194.984l-65-17.12v-25l41,11.12
	v-119h24V194.984z M180.107,67.984h-41.17v41.5l38.3-5.41l-6.439,75.851l-55.11,15.06v-23.94l34.5-10.06l2.87-29.88l-37.37,5.88v-92
	h66.5L180.107,67.984z"/>
<g>
	<polygon fill="#E8C82F" points="417.833,217.984 330.166,242.938 242.5,217.984 223.5,0 436.833,0 	"/>
	<g>
		<polygon fill="#FFFFFF" points="322.438,194.984 257.438,177.859 257.438,152.859 298.438,163.984 298.438,44.984 322.438,44.984 
					"/>
		<polygon fill="#FFFFFF" points="362.438,67.984 362.438,109.484 400.737,104.074 394.298,179.925 339.188,194.984 
			339.188,171.047 373.688,160.984 376.563,131.109 339.188,136.984 339.188,44.984 405.688,44.984 403.607,67.984 		"/>
	</g>
</g>
</svg>
